<?xml version="1.0" encoding="iso-8859-1"?>
<!-- Generator: Adobe Illustrator 19.0.0, SVG Export Plug-In . SVG Version: 6.00 Build 0)  -->
<svg version="1.1" id="Capa_1" xmlns="http://www.w3.org/2000/svg" xmlns:xlink="http://www.w3.org/1999/xlink" x="0px" y="0px"
	 viewBox="0 0 408 408" style="enable-background:new 0 0 408 408;" xml:space="preserve">
<path style="fill:#FCE9CC;" d="M204,0C97.961,0,12,85.961,12,192s85.961,192,192,192s192-85.961,192-192S310.039,0,204,0z M204,272
	c-44.183,0-80-35.817-80-80s35.817-80,80-80s80,35.817,80,80S248.183,272,204,272z"/>
<path style="fill:#A65A14;" d="M204,0C97.961,0,12,85.961,12,192v48c0,8.837,7.163,16,16,16s16-7.163,16-16v-16
	c0-8.837,7.163-16,16-16s16,7.163,16,16v64c0,8.837,7.163,16,16,16s16-7.163,16-16v-32c0-8.837,7.163-16,16-16s16,7.163,16,16v136
	c0,8.837,7.163,16,16,16s16-7.163,16-16v-72c0-8.837,7.163-16,16-16s16,7.163,16,16v16c0,8.837,7.163,16,16,16s16-7.163,16-16v-56
	c0-8.837,7.163-16,16-16s16,7.163,16,16v32c0,8.837,7.163,16,16,16s16-7.163,16-16v-72c0-8.837,7.163-16,16-16
	c8.664-0.002,15.689,7.021,15.691,15.685c0,0.105-0.001,0.21-0.003,0.315l-0.152,7.736c-0.172,8.808,6.829,16.089,15.637,16.261
	c0.105,0.002,0.21,0.003,0.315,0.003h0.424c8.925,0.036,16.189-7.17,16.225-16.095c0-0.086,0-0.172-0.001-0.257
	c0-2.504-0.056-5.088-0.072-7.592c-0.066-8.801,7.015-15.989,15.816-16.056c0.04,0,0.08,0,0.12,0c8.837,0,16-7.163,16-16v-16
	C396,85.961,310.039,0,204,0z M204,272c-44.183,0-80-35.817-80-80s35.817-80,80-80s80,35.817,80,80S248.183,272,204,272z"/>
<g>
	<path style="fill:#7C440F;" d="M52,168h16v16H52V168z"/>
	<path style="fill:#7C440F;" d="M92,120h16v16H92V120z"/>
	<path style="fill:#7C440F;" d="M108,56h16v16h-16V56z"/>
	<path style="fill:#7C440F;" d="M156,80h16v16h-16V80z"/>
	<path style="fill:#7C440F;" d="M196,32h16v16h-16V32z"/>
	<path style="fill:#7C440F;" d="M252,64h16v16h-16V64z"/>
	<path style="fill:#7C440F;" d="M308,80h16v16h-16V80z"/>
	<path style="fill:#7C440F;" d="M340,176h16v16h-16V176z"/>
	<path style="fill:#7C440F;" d="M300,136h16v16h-16V136z"/>
</g>
<g>
</g>
<g>
</g>
<g>
</g>
<g>
</g>
<g>
</g>
<g>
</g>
<g>
</g>
<g>
</g>
<g>
</g>
<g>
</g>
<g>
</g>
<g>
</g>
<g>
</g>
<g>
</g>
<g>
</g>
</svg>
