<?xml version="1.0" encoding="iso-8859-1"?>
<!-- Generator: Adobe Illustrator 19.0.0, SVG Export Plug-In . SVG Version: 6.00 Build 0)  -->
<svg version="1.1" id="Capa_1" xmlns="http://www.w3.org/2000/svg" x="0px"
     y="0px"
     viewBox="0 0 464 464" style="enable-background:new 0 0 464 464;" xml:space="preserve">
<path style="fill:#FFA900;" d="M0,232l49.136,49.136c30.005,30.006,70.702,46.863,113.136,46.864H184V136h-21.728
	c-42.434,0.001-83.131,16.858-113.136,46.864L0,232z"/>
    <path style="fill:#FADBB7;" d="M184,328V136h29.96c67.895,0.002,133.008,26.974,181.016,74.984L416,232l-21.016,21.016
	C346.974,301.028,281.858,328,213.96,328H184z"/>
    <g>
	<path style="fill:#E47700;" d="M416,248v-32c0-26.51,21.49-48,48-48v128C437.49,296,416,274.51,416,248z"/>
        <path style="fill:#E47700;" d="M184,232c0-13.255,10.745-24,24-24h8v48h-8C194.745,256,184,245.255,184,232z"/>
        <path style="fill:#E47700;" d="M184,136c0-17.673,14.327-32,32-32h64c0,17.673-14.327,32-32,32H184z"/>
        <path style="fill:#E47700;" d="M184,328c0,17.673,14.327,32,32,32h32c0-17.673-14.327-32-32-32H184z"/>
</g>
    <g>
	<path style="fill:#A65A14;" d="M96,184L96,184c4.418,0,8,3.582,8,8l0,0c0,4.418-3.582,8-8,8l0,0c-4.418,0-8-3.582-8-8l0,0
		C88,187.582,91.582,184,96,184z"/>
        <path style="fill:#A65A14;" d="M253.656,221.656l-11.312-11.312c10.131-10.126,10.135-26.548,0.009-36.679
		c-0.003-0.003-0.006-0.006-0.009-0.009l11.312-11.312c16.379,16.369,16.386,42.917,0.017,59.295
		C253.667,221.645,253.662,221.65,253.656,221.656z"/>
        <path style="fill:#A65A14;" d="M253.656,301.656l-11.312-11.312c10.131-10.126,10.135-26.548,0.009-36.679
		c-0.003-0.003-0.006-0.006-0.009-0.009l11.312-11.312c16.379,16.369,16.386,42.917,0.017,59.295
		C253.667,301.645,253.662,301.65,253.656,301.656z"/>
        <path style="fill:#A65A14;" d="M293.656,261.656l-11.312-11.312c10.131-10.126,10.135-26.548,0.009-36.679
		c-0.003-0.003-0.006-0.006-0.009-0.009l11.312-11.312c16.379,16.369,16.386,42.917,0.017,59.295
		C293.667,261.645,293.662,261.65,293.656,261.656z"/>
        <path style="fill:#A65A14;" d="M341.656,261.656l-11.312-11.312c10.131-10.126,10.135-26.548,0.009-36.679
		c-0.003-0.003-0.006-0.006-0.009-0.009l11.312-11.312c16.379,16.369,16.386,42.917,0.017,59.295
		C341.667,261.645,341.662,261.65,341.656,261.656z"/>
        <path style="fill:#A65A14;" d="M48,272h-8l9.136,9.136c2.192,2.192,4.56,4.168,6.872,6.224C83.523,283.367,103.951,259.804,104,232
		H88C87.974,254.08,70.08,271.974,48,272z"/>
</g>
    <g>
</g>
    <g>
</g>
    <g>
</g>
    <g>
</g>
    <g>
</g>
    <g>
</g>
    <g>
</g>
    <g>
</g>
    <g>
</g>
    <g>
</g>
    <g>
</g>
    <g>
</g>
    <g>
</g>
    <g>
</g>
    <g>
</g>
</svg>
