<svg width="25" height="25" viewBox="0 0 25 25" fill="none" xmlns="http://www.w3.org/2000/svg">
<path d="M14.4462 22.625C14.2485 22.966 13.9646 23.249 13.623 23.4457C13.2814 23.6425 12.8942 23.746 12.5 23.746C12.1058 23.746 11.7186 23.6425 11.377 23.4457C11.0354 23.249 10.7515 22.966 10.5538 22.625M23.75 18.125H1.25C2.14511 18.125 3.00355 17.7694 3.63649 17.1365C4.26942 16.5035 4.625 15.6451 4.625 14.75V9.125C4.625 7.03642 5.45469 5.03338 6.93153 3.55653C8.40838 2.07968 10.4114 1.25 12.5 1.25C14.5886 1.25 16.5916 2.07968 18.0685 3.55653C19.5453 5.03338 20.375 7.03642 20.375 9.125V14.75C20.375 15.6451 20.7306 16.5035 21.3635 17.1365C21.9964 17.7694 22.8549 18.125 23.75 18.125Z" stroke="#111111" stroke-width="2" stroke-linecap="round" stroke-linejoin="round"/>
</svg>
